<svg width="329" height="164" viewBox="0 0 329 164" fill="none" xmlns="http://www.w3.org/2000/svg">
<path d="M23.7134 31.36H39.1944V130H23.7134V31.36ZM106.34 130H92.0925L91.1335 123.15C88.8501 125.616 86.1101 127.534 82.9135 128.904C79.7168 130.274 76.3375 130.959 72.7755 130.959C67.3868 130.959 62.7288 129.863 58.8015 127.671C54.9655 125.388 51.9971 122.1 49.8965 117.807C47.7958 113.423 46.7455 108.034 46.7455 101.641V61.5H62.2265V99.586C62.2265 105.249 63.3681 109.587 65.6515 112.601C67.9348 115.524 71.4511 116.985 76.2005 116.985C80.7671 116.985 84.3291 115.524 86.8865 112.601C89.5351 109.587 90.8595 105.157 90.8595 99.312V61.5H106.34V130ZM114.776 61.5H128.75L129.846 67.939C132.129 65.6557 134.823 63.8747 137.929 62.596C141.034 61.226 144.413 60.541 148.067 60.541C152.633 60.541 156.743 61.5 160.397 63.418C164.05 65.2447 167.018 67.939 169.302 71.501C171.676 67.939 174.919 65.2447 179.029 63.418C183.139 61.5 187.568 60.541 192.318 60.541C197.706 60.541 202.364 61.6827 206.292 63.966C210.31 66.158 213.416 69.446 215.608 73.83C217.8 78.1227 218.896 83.5113 218.896 89.996V130H203.278V92.051C203.278 86.297 202.045 81.9587 199.579 79.036C197.204 76.1133 193.688 74.652 189.03 74.652C184.28 74.652 180.581 76.159 177.933 79.173C175.284 82.0957 173.96 86.4797 173.96 92.325V130H158.479V92.051C158.479 86.297 157.337 81.9587 155.054 79.036C152.862 76.1133 149.437 74.652 144.779 74.652C140.029 74.652 136.422 76.159 133.956 79.173C131.49 82.0957 130.257 86.434 130.257 92.188V130H114.776V61.5ZM267.224 130L265.854 121.643C263.662 124.566 261.059 126.803 258.045 128.356C255.031 129.909 251.013 130.685 245.989 130.685C241.24 130.685 237.13 129.909 233.659 128.356C230.189 126.712 227.494 124.474 225.576 121.643C223.75 118.72 222.836 115.341 222.836 111.505C222.836 105.751 224.937 100.956 229.138 97.12C233.431 93.1927 239.687 90.7723 247.907 89.859L265.854 87.941V82.598C265.854 80.406 264.895 78.4423 262.977 76.707C261.059 74.8803 258 73.967 253.798 73.967C250.145 73.967 246.948 74.8803 244.208 76.707C241.56 78.4423 239.779 81.091 238.865 84.653L225.439 79.721C227.175 73.693 230.6 68.9893 235.714 65.61C240.92 62.2307 247.222 60.541 254.62 60.541C263.571 60.541 270.284 62.7787 274.759 67.254C279.235 71.7293 281.472 77.4377 281.472 84.379V130H267.224ZM265.854 99.86L249.414 101.915C245.944 102.372 243.341 103.376 241.605 104.929C239.87 106.39 239.002 108.263 239.002 110.546C239.002 112.647 239.824 114.473 241.468 116.026C243.204 117.487 245.533 118.218 248.455 118.218C252.2 118.218 255.351 117.533 257.908 116.163C260.557 114.793 262.521 112.829 263.799 110.272C265.169 107.715 265.854 104.564 265.854 100.819V99.86Z" fill="#EEEEEE"/>
<path d="M294 12C298.348 33.8338 307.04 42.6096 329 47C307.035 51.3904 298.343 60.1662 294 82C289.652 60.1662 280.96 51.3853 259 47C280.965 42.6096 289.657 33.8338 294 12Z" fill="#EEEEEE"/>
</svg>
