<svg xmlns="http://www.w3.org/2000/svg" xmlns:xlink="http://www.w3.org/1999/xlink" viewBox="0 0 169 42"><g transform="translate(0.5 0.5)" id="ss2884118135_1"><path d="M 0 0 L 168 0 L 168 41 L 0 41 Z" fill="transparent"></path><path d="M 49.278 28.952 L 61.23 28.952 L 61.23 25.352 L 53.526 25.352 L 53.526 11.792 L 49.278 11.792 Z M 68.31 26.552 C 66.607 26.552 65.719 25.064 65.719 22.832 C 65.719 20.6 66.607 19.088 68.311 19.088 C 70.015 19.088 70.927 20.6 70.927 22.832 C 70.927 25.064 70.015 26.552 68.311 26.552 Z M 68.335 29.336 C 72.295 29.336 74.887 26.528 74.887 22.832 C 74.887 19.136 72.295 16.328 68.335 16.328 C 64.399 16.328 61.759 19.136 61.759 22.832 C 61.759 26.528 64.399 29.336 68.335 29.336 Z M 81.741 33.2 C 83.565 33.2 85.173 32.792 86.253 31.832 C 87.237 30.944 87.885 29.6 87.885 27.752 L 87.885 16.664 L 84.141 16.664 L 84.141 17.984 L 84.093 17.984 C 83.373 16.952 82.269 16.304 80.637 16.304 C 77.589 16.304 75.477 18.848 75.477 22.448 C 75.477 26.216 78.045 28.28 80.805 28.28 C 82.293 28.28 83.229 27.68 83.949 26.864 L 84.045 26.864 L 84.045 28.088 C 84.045 29.576 83.349 30.44 81.693 30.44 C 80.397 30.44 79.749 29.888 79.533 29.24 L 75.741 29.24 C 76.125 31.808 78.357 33.2 81.741 33.2 Z M 81.717 25.376 C 80.253 25.376 79.293 24.176 79.293 22.328 C 79.293 20.456 80.253 19.256 81.717 19.256 C 83.349 19.256 84.213 20.648 84.213 22.304 C 84.213 24.032 83.421 25.376 81.717 25.376 Z M 95.584 26.552 C 93.879 26.552 92.991 25.064 92.991 22.832 C 92.991 20.6 93.879 19.088 95.584 19.088 C 97.287 19.088 98.199 20.6 98.199 22.832 C 98.199 25.064 97.287 26.552 95.584 26.552 Z M 95.607 29.336 C 99.567 29.336 102.159 26.528 102.159 22.832 C 102.159 19.136 99.567 16.328 95.607 16.328 C 91.671 16.328 89.031 19.136 89.031 22.832 C 89.031 26.528 91.671 29.336 95.607 29.336 Z M 103.302 28.952 L 107.214 28.952 L 107.214 16.664 L 103.302 16.664 Z M 103.302 14.96 L 107.214 14.96 L 107.214 11.792 L 103.302 11.792 Z M 108.911 33.008 L 112.823 33.008 L 112.823 27.68 L 112.871 27.68 C 113.639 28.712 114.767 29.336 116.351 29.336 C 119.567 29.336 121.703 26.792 121.703 22.808 C 121.703 19.112 119.711 16.304 116.447 16.304 C 114.767 16.304 113.567 17.048 112.727 18.152 L 112.655 18.152 L 112.655 16.664 L 108.911 16.664 Z M 115.343 26.312 C 113.663 26.312 112.703 24.944 112.703 22.952 C 112.703 20.96 113.567 19.448 115.271 19.448 C 116.951 19.448 117.743 20.84 117.743 22.952 C 117.743 25.04 116.831 26.312 115.343 26.312 Z M 128.072 29.336 C 131.288 29.336 133.664 27.944 133.664 25.256 C 133.664 22.112 131.12 21.56 128.96 21.2 C 127.4 20.912 126.008 20.792 126.008 19.928 C 126.008 19.16 126.752 18.8 127.712 18.8 C 128.792 18.8 129.536 19.136 129.68 20.24 L 133.28 20.24 C 133.088 17.816 131.216 16.304 127.736 16.304 C 124.832 16.304 122.432 17.648 122.432 20.24 C 122.432 23.12 124.712 23.696 126.848 24.056 C 128.48 24.344 129.968 24.464 129.968 25.568 C 129.968 26.36 129.224 26.792 128.048 26.792 C 126.752 26.792 125.936 26.192 125.792 24.968 L 122.096 24.968 C 122.216 27.68 124.472 29.336 128.072 29.336 Z M 138.978 29.312 C 140.682 29.312 141.762 28.64 142.65 27.44 L 142.722 27.44 L 142.722 28.952 L 146.466 28.952 L 146.466 16.664 L 142.554 16.664 L 142.554 23.528 C 142.554 24.992 141.738 26 140.394 26 C 139.146 26 138.546 25.256 138.546 23.912 L 138.546 16.664 L 134.658 16.664 L 134.658 24.728 C 134.658 27.464 136.146 29.312 138.978 29.312 Z M 148.168 28.952 L 152.08 28.952 L 152.08 22.064 C 152.08 20.6 152.8 19.568 154.024 19.568 C 155.2 19.568 155.752 20.336 155.752 21.656 L 155.752 28.952 L 159.664 28.952 L 159.664 22.064 C 159.664 20.6 160.36 19.568 161.608 19.568 C 162.784 19.568 163.336 20.336 163.336 21.656 L 163.336 28.952 L 167.248 28.952 L 167.248 20.96 C 167.248 18.2 165.856 16.304 163.072 16.304 C 161.488 16.304 160.168 16.976 159.208 18.464 L 159.16 18.464 C 158.536 17.144 157.312 16.304 155.704 16.304 C 153.928 16.304 152.752 17.144 151.984 18.416 L 151.912 18.416 L 151.912 16.664 L 148.168 16.664 Z M 25.41 1.977 L 21.477 0.923 L 18.163 13.293 L 15.17 2.125 L 11.237 3.18 L 14.47 15.246 L 6.417 7.193 L 3.538 10.073 L 12.371 18.905 L 1.371 15.957 L 0.317 19.89 L 12.336 23.11 C 11.578 19.842 12.901 16.443 15.67 14.548 C 18.439 12.653 22.087 12.651 24.859 14.542 C 27.63 16.432 28.959 19.83 28.205 23.099 L 39.128 26.025 L 40.181 22.092 L 28.115 18.859 L 39.115 15.911 L 38.062 11.978 L 25.996 15.211 L 34.048 7.159 L 31.169 4.279 L 22.459 12.989 L 25.409 1.977 Z" fill="rgb(255,255,255)"></path><path d="M 28.194 23.144 C 27.862 24.546 27.162 25.834 26.168 26.877 L 34.081 34.79 L 36.961 31.91 Z M 26.088 26.96 C 25.086 27.985 23.83 28.727 22.449 29.111 L 25.329 39.857 L 29.262 38.803 Z M 22.303 29.15 C 21.638 29.321 20.955 29.407 20.269 29.406 C 19.535 29.407 18.805 29.308 18.097 29.113 L 15.215 39.87 L 19.148 40.924 L 22.303 29.151 Z M 17.958 29.074 C 16.596 28.67 15.364 27.917 14.383 26.89 L 6.451 34.823 L 9.33 37.703 L 17.958 29.073 Z M 14.317 26.82 C 13.348 25.785 12.667 24.514 12.342 23.134 L 1.383 26.07 L 2.437 30.003 Z" fill="rgb(255,255,255)"></path></g></svg>