<svg width="48" height="48" viewBox="0 0 48 48" fill="none" xmlns="http://www.w3.org/2000/svg">
<path d="M43.6601 0.96H37.6459C35.7902 0.96 34.2857 2.43427 34.2857 4.25299V10.1469C34.2857 11.9656 35.7902 13.44 37.6459 13.44H43.6601C45.516 13.44 47.0204 11.9656 47.0204 10.1469V4.25299C47.0204 2.43427 45.516 0.96 43.6601 0.96Z" fill="white"/>
<path d="M20.1079 13.7913H25.3892C27.5745 13.913 29.6534 14.7567 31.2866 16.185L31.4847 16.4007C32.9497 17.9965 33.8118 20.0365 33.9272 22.1802V27.3343C33.9272 28.2322 34.2912 29.0934 34.9391 29.7283C35.587 30.3633 36.4658 30.72 37.3821 30.72H43.5656C44.4818 30.72 45.3606 30.3633 46.0085 29.7283C46.6564 29.0934 47.0204 28.2322 47.0204 27.3343V21.2745C47.0204 20.3765 46.6564 19.5154 46.0085 18.8804C45.3606 18.2455 44.4818 17.8887 43.5656 17.8887H38.3063C36.1189 17.7756 34.0373 16.9307 32.4088 15.495L32.1888 15.3009C30.7284 13.7022 29.867 11.6639 29.7462 9.52137V4.34573C29.7462 3.44784 29.3823 2.58662 28.7344 1.95168C28.0864 1.31674 27.2077 0.96 26.2914 0.96H20.1079C19.1916 0.96 18.3129 1.31674 17.665 1.95168C17.0171 2.58662 16.6531 3.44784 16.6531 4.34573V10.4056C16.6531 11.3035 17.0171 12.1646 17.665 12.7996C18.3129 13.4345 19.1916 13.7913 20.1079 13.7913Z" fill="white"/>
<path d="M44.5559 35.0082H39.3242C37.1465 34.8697 35.0831 33.9843 33.4823 32.5014L32.8937 31.9129C31.4425 30.2997 30.5884 28.2376 30.4741 26.0708V20.8392C30.4683 19.9333 30.106 19.0662 29.4654 18.4256C28.8248 17.785 27.9577 17.4226 27.0517 17.4169H21.8201C19.6603 17.326 17.5976 16.4947 15.9782 15.0627L15.3897 14.4741C13.9384 12.861 13.0844 10.7989 12.97 8.63213V3.4224C12.97 2.51472 12.6094 1.64419 11.9677 1.00234C11.3258 0.360578 10.4554 0 9.54769 0L3.4223 0C2.51471 0 1.64415 0.360578 1.00242 1.00234C0.360588 1.64419 0 2.51472 0 3.4224L0 9.54768C0 10.4554 0.360588 11.3259 1.00242 11.9676C1.64415 12.6095 2.51471 12.9701 3.4223 12.9701H8.63216C10.832 13.0707 12.9284 13.9338 14.5613 15.4115L15.1499 16C16.5965 17.616 17.4499 19.6764 17.5695 21.8419V27.0736C17.5751 27.9795 17.9376 28.8467 18.5782 29.4872C19.2187 30.1278 20.0859 30.4902 20.9918 30.4959H26.2234C28.3662 30.63 30.4012 31.4824 32 32.9155L32.5886 33.5041C34.0352 35.1201 34.8886 37.1805 35.0082 39.3461V44.5777C35.0138 45.4836 35.3763 46.3507 36.0169 46.9913C36.6574 47.6319 37.5246 47.9942 38.4305 48H44.5776C45.4835 47.9942 46.3508 47.6319 46.9913 46.9913C47.6319 46.3507 47.9943 45.4836 48 44.5777V38.4305C47.9942 37.5209 47.6288 36.6504 46.9836 36.0092C46.3383 35.368 45.4655 35.0081 44.5559 35.0082Z" fill="white"/>
<path d="M10.0956 34.56H3.61871C1.62015 34.56 0 36.0344 0 37.8531L0 43.747C0 45.5657 1.62015 47.04 3.61871 47.04H10.0956C12.0941 47.04 13.7143 45.5657 13.7143 43.747V37.8531C13.7143 36.0344 12.0941 34.56 10.0956 34.56Z" fill="white"/>
<path d="M26.9125 34.2086H21.6532C19.4659 34.0955 17.3842 33.2507 15.7558 31.815L15.5357 31.6209C14.0661 30.0108 13.204 27.9558 13.0931 25.7983V20.6226C13.0823 19.7506 12.7284 18.9162 12.1053 18.2935C11.4822 17.6708 10.6379 17.3077 9.74831 17.28H3.45482C2.53851 17.28 1.65982 17.6367 1.01192 18.2717C0.364014 18.9066 0 19.7677 0 20.6657L0 26.7255C0 27.6235 0.364014 28.4846 1.01192 29.1197C1.65982 29.7546 2.53851 30.1113 3.45482 30.1113H8.7361C10.9215 30.233 13.0004 31.0767 14.6335 32.505L14.8316 32.7206C16.2966 34.3165 17.1587 36.3565 17.2741 38.5001V43.6542C17.2741 44.1007 17.3642 44.5427 17.5392 44.9548C17.7143 45.367 17.9707 45.7412 18.2939 46.0559C18.6169 46.3706 19.0005 46.6195 19.4222 46.7884C19.8439 46.9572 20.2955 47.0428 20.751 47.0399H26.9125C27.8287 47.0399 28.7075 46.6833 29.3554 46.0483C30.0033 45.4134 30.3673 44.5522 30.3673 43.6542V37.5944C30.3673 36.6965 30.0033 35.8353 29.3554 35.2003C28.7075 34.5654 27.8287 34.2086 26.9125 34.2086Z" fill="white"/>
</svg>
